<svg version="1.1" id="Layer_1" xmlns="http://www.w3.org/2000/svg" xmlns:xlink="http://www.w3.org/1999/xlink" x="0px" y="0px"
	 width="100%" viewBox="0 0 400 400" enable-background="new 0 0 400 400" xml:space="preserve">
<path fill="#000000" opacity="1.000000" stroke="none" 
	d="
M193.000000,401.000000 
	C128.686615,401.000000 64.873222,401.000000 1.029917,401.000000 
	C1.029917,267.728271 1.029917,134.456543 1.029917,1.092406 
	C134.230011,1.092406 267.460114,1.092406 400.845093,1.092406 
	C400.845093,134.333191 400.845093,267.666565 400.845093,401.000000 
	C331.789948,401.000000 262.644989,401.000000 193.000000,401.000000 
M108.264801,100.455788 
	C98.541618,104.770020 93.830826,112.224922 93.903519,122.881386 
	C94.001259,137.209534 93.900070,151.538925 93.935532,165.867676 
	C93.970917,180.166656 103.364212,189.624527 117.745338,189.716812 
	C132.073578,189.808746 146.403275,189.805450 160.731552,189.717239 
	C174.567719,189.632050 184.279526,180.599579 184.632034,166.820541 
	C185.015427,151.835175 185.001434,136.825546 184.636398,121.839264 
	C184.297974,107.944992 174.719833,99.001869 160.852051,98.942368 
	C146.523483,98.880890 132.193878,98.860374 117.866119,98.983910 
	C114.911911,99.009384 111.963852,99.749374 108.264801,100.455788 
M224.027084,281.421112 
	C224.585159,282.249054 225.123138,283.091370 225.704254,283.902802 
	C239.173309,302.710358 264.127228,308.568390 284.338806,297.672272 
	C304.513641,286.795929 313.391663,262.491302 305.016266,241.065353 
	C296.691528,219.768997 273.732849,208.106995 251.289963,213.882492 
	C222.804718,221.212967 208.139145,254.075958 224.027084,281.421112 
M275.103882,185.710968 
	C277.409393,182.717285 280.370728,180.018707 281.879150,176.666367 
	C284.713684,170.366699 288.980621,166.109253 295.310699,163.425842 
	C303.806915,159.824173 308.226837,153.216202 308.050262,143.882446 
	C307.878174,134.789902 303.365784,128.453293 295.047119,125.012543 
	C288.843201,122.446472 284.596100,118.212006 282.055573,112.024490 
	C278.524475,103.424408 271.903717,98.998253 262.687988,98.989990 
	C253.410843,98.981667 246.852097,103.626160 243.406464,112.173775 
	C240.945541,118.278648 236.838196,122.456558 230.822617,124.865189 
	C221.924057,128.428162 217.392441,135.255264 217.436096,144.557465 
	C217.479065,153.715271 222.257599,160.293976 230.852997,163.738068 
	C236.748215,166.100235 240.705215,170.160950 243.241302,175.957733 
	C249.099014,189.346878 261.674774,193.353256 275.103882,185.710968 
M137.500000,297.002563 
	C152.902328,297.002563 168.304642,297.002563 184.574173,297.002563 
	C169.309235,270.559021 154.459610,244.834946 139.216858,218.429825 
	C123.919624,244.928772 109.042076,270.700745 94.078011,296.622589 
	C94.957649,296.834137 95.266792,296.973175 95.576118,296.973572 
	C109.217400,296.990875 122.858704,296.996002 137.500000,297.002563 
z"/>
<path fill="#0D9387" opacity="1.000000" stroke="none" 
	d="
M108.638885,100.307915 
	C111.963852,99.749374 114.911911,99.009384 117.866119,98.983910 
	C132.193878,98.860374 146.523483,98.880890 160.852051,98.942368 
	C174.719833,99.001869 184.297974,107.944992 184.636398,121.839264 
	C185.001434,136.825546 185.015427,151.835175 184.632034,166.820541 
	C184.279526,180.599579 174.567719,189.632050 160.731552,189.717239 
	C146.403275,189.805450 132.073578,189.808746 117.745338,189.716812 
	C103.364212,189.624527 93.970917,180.166656 93.935532,165.867676 
	C93.900070,151.538925 94.001259,137.209534 93.903519,122.881386 
	C93.830826,112.224922 98.541618,104.770020 108.638885,100.307915 
z"/>
<path fill="#2562EA" opacity="1.000000" stroke="none" 
	d="
M223.853470,281.099609 
	C208.139145,254.075958 222.804718,221.212967 251.289963,213.882492 
	C273.732849,208.106995 296.691528,219.768997 305.016266,241.065353 
	C313.391663,262.491302 304.513641,286.795929 284.338806,297.672272 
	C264.127228,308.568390 239.173309,302.710358 225.704254,283.902802 
	C225.123138,283.091370 224.585159,282.249054 223.853470,281.099609 
z"/>
<path fill="#BE83FA" opacity="1.000000" stroke="none" 
	d="
M274.784210,185.893646 
	C261.674774,193.353256 249.099014,189.346878 243.241302,175.957733 
	C240.705215,170.160950 236.748215,166.100235 230.852997,163.738068 
	C222.257599,160.293976 217.479065,153.715271 217.436096,144.557465 
	C217.392441,135.255264 221.924057,128.428162 230.822617,124.865189 
	C236.838196,122.456558 240.945541,118.278648 243.406464,112.173775 
	C246.852097,103.626160 253.410843,98.981667 262.687988,98.989990 
	C271.903717,98.998253 278.524475,103.424408 282.055573,112.024490 
	C284.596100,118.212006 288.843201,122.446472 295.047119,125.012543 
	C303.365784,128.453293 307.878174,134.789902 308.050262,143.882446 
	C308.226837,153.216202 303.806915,159.824173 295.310699,163.425842 
	C288.980621,166.109253 284.713684,170.366699 281.879150,176.666367 
	C280.370728,180.018707 277.409393,182.717285 274.784210,185.893646 
z"/>
<path fill="#22D2ED" opacity="1.000000" stroke="none" 
	d="
M137.000000,297.002563 
	C122.858704,296.996002 109.217400,296.990875 95.576118,296.973572 
	C95.266792,296.973175 94.957649,296.834137 94.078011,296.622589 
	C109.042076,270.700745 123.919624,244.928772 139.216858,218.429825 
	C154.459610,244.834946 169.309235,270.559021 184.574173,297.002563 
	C168.304642,297.002563 152.902328,297.002563 137.000000,297.002563 
z"/>
</svg>